<svg width="74" height="74" viewBox="0 0 61 61" fill="none" xmlns="http://www.w3.org/2000/svg"><path d="M23.9257 9.11343c3.2328-5.48458 10.9158-5.48457 14.1486.0L59.7706 45.9222C63.1467 51.6499 59.1707 59 52.6963 59H9.30371C2.82925 59-1.1467 51.6499 2.22941 45.9222L23.9257 9.11343z" fill="#f64f64"/><path d="M27.6665 26.6666c0-1.7144 1.3726-3.1041 3.0657-3.1041 1.6932.0 3.0658 1.3897 3.0658 3.1041v8.4253c0 1.71429999999999-1.3726 3.104-3.0658 3.104-1.6931.0-3.0657-1.3897-3.0657-3.104V26.6666z" fill="#fff"/><path d="M33.798 43.9606c0 1.7143-1.3726 3.104-3.0658 3.104-1.6931.0-3.0657-1.3897-3.0657-3.104.0-1.7144 1.3726-3.1041 3.0657-3.1041 1.6932.0 3.0658 1.3897 3.0658 3.1041z" fill="#fff"/></svg>