<svg width="720" height="158" xmlns="http://www.w3.org/2000/svg"><g fill="none" fill-rule="evenodd"><path d="M709.84 65.915c-5.615 0-10.122-4.535-10.122-10.14 0-5.569 4.507-10.141 10.123-10.141 5.615 0 10.159 4.572 10.159 10.14 0 5.606-4.544 10.141-10.16 10.141zm0-18.437c-4.543 0-8.2 3.687-8.2 8.297 0 4.61 3.657 8.297 8.2 8.297 4.508 0 8.239-3.688 8.239-8.297 0-4.61-3.731-8.297-8.238-8.297zm-1.514 9.92v4.166h-2.401V49.985h4.58c2.254 0 4.138 1.18 4.138 3.65 0 1.734-.923 2.803-2.216 3.32l2.401 4.61h-2.623l-2.106-4.168h-1.773zm3.879-3.688c0-1.144-.96-1.439-1.884-1.439h-1.995v2.877h2.032c.887 0 1.847-.369 1.847-1.438zm-412.137 67.98l-34.682-52.022v52.022h-15.414V46.257h17.822l32.755 49.23v-49.23h15.414v75.433h-15.895zm25.078-25.626c0-15.318 12.62-26.974 28.227-26.974 15.51 0 27.938 11.367 27.938 26.685 0 15.51-12.62 27.071-28.13 27.071-15.607 0-28.035-11.271-28.035-26.782zm15.414-.192c0 7.803 5.684 13.198 12.717 13.198 7.032 0 12.62-5.395 12.62-13.198 0-7.707-5.684-13.102-12.717-13.102-7.032 0-12.62 5.395-12.62 13.102zm77.598-25.626v14.74c-2.023-.386-4.143-.386-4.817-.386-7.226 0-12.235 5.01-12.235 14.547v22.543h-14.74V70.246h14.258v7.514h.193c2.794-5.877 7.996-8.092 13.295-8.092 1.156 0 2.986.289 4.046.578zm43.408 51.444v-6.55h-.193c-4.817 7.032-12.524 7.514-15.992 7.514-14.933 0-24.47-12.91-24.47-26.782 0-13.006 9.923-26.59 24.663-26.59 2.986 0 10.115.578 15.414 6.84h.192V43.271h14.933v78.42h-14.547zm0-25.818c0-7.707-5.684-13.006-12.717-13.006s-12.717 5.299-12.717 13.006c0 7.803 5.684 13.198 12.717 13.198s12.717-5.395 12.717-13.198zm46.485 25.818l-27.263-75.433h16.859l19.556 57.322 19.653-57.322h16.57l-27.36 75.433h-18.015zm106.794-51.252c0 16.667-11.754 24.663-27.553 24.663h-11.85v26.59h-15.607V46.256h28.035c15.125 0 26.975 8.19 26.975 24.181zm-15.704.386c0-7.322-6.165-9.827-12.62-9.827h-11.079v19.557h11.175c6.166 0 12.524-2.698 12.524-9.73zm73.653 50.866l-34.681-52.022v52.022h-15.414V46.257h17.822l32.755 49.23v-49.23h15.414v75.433h-15.896z" fill="#373B42"/><path d="M18.813 157.183C6.98 140.856 0 120.766 0 99.043 0 44.343 44.254 0 98.844 0c54.59 0 98.844 44.343 98.844 99.043 0 21.723-6.98 41.812-18.813 58.14L131.4 79.933l-4.584 7.757 4.65 21.571-32.622-55.93-20.18 34.142 4.698 21.788-17.1-29.283-47.449 77.205z" fill="#4687FF"/></g></svg>
